<svg aria-hidden="true" style="position: absolute; width: 0; height: 0; overflow: hidden;" version="1.1" xmlns="http://www.w3.org/2000/svg" xmlns:xlink="http://www.w3.org/1999/xlink">
<defs>
<symbol id="icon-Troll-Face" viewBox="0 0 34 32">
<path d="M25.446 31.958c-0.409-0.013-0.91-0.036-1.115-0.053-0.385-0.031-0.549-0.073-3.16-0.802-1.155-0.323-2.375-0.62-2.931-0.713-0.212-0.036-0.442-0.097-0.612-0.164-0.439-0.173-1.655-0.791-2.715-1.381-1.537-0.855-2.519-1.378-3.364-1.789-1.235-0.602-2.345-1.273-3.582-2.165-0.772-0.557-1.177-0.903-1.844-1.576-1.195-1.206-1.848-2.143-2.401-3.445-0.45-1.058-0.923-1.826-1.56-2.53-0.327-0.361-0.735-0.883-0.993-1.272-0.287-0.432-0.626-1.106-0.76-1.515-0.296-0.904-0.411-2.214-0.263-3.016 0.155-0.842 0.607-1.602 1.7-2.858 0.15-0.173 0.28-0.321 0.288-0.329 0.053-0.052 0.41-0.47 0.654-0.767 0.656-0.798 1.046-1.451 1.505-2.52 0.633-1.474 1.275-2.535 2.108-3.482 0.436-0.496 0.707-0.723 1.516-1.275l0.452-0.308 4.55 0.017c2.503 0.010 4.705 0.023 4.893 0.030s0.71 0.026 1.158 0.043c4.618 0.175 7.472 0.665 9.464 1.626 1.131 0.545 2.336 1.475 2.91 2.243 0.322 0.431 0.517 0.931 0.517 1.324 0 0.686 0.2 1.427 0.514 1.903 0.196 0.298 0.338 0.447 0.672 0.705 0.592 0.457 0.923 0.966 1.116 1.716 0.16 0.621 0.23 1.511 0.204 2.572-0.033 1.294-0.062 1.397-1.020 3.501l-0.494 1.086 0.018 2.987c0.010 1.643 0.024 3.161 0.031 3.373s0.021 0.63 0.030 0.929c0.033 1.105 0.057 1.603 0.16 3.237l0.058 0.922-0.292 0.522c-0.65 1.159-1.064 1.644-1.852 2.168-0.52 0.345-1.341 0.728-1.888 0.879-0.679 0.188-1.668 0.234-3.673 0.172l-0 0zM27.733 31.092c1.068-0.103 1.448-0.194 2.096-0.503 0.856-0.408 1.498-0.956 1.966-1.679 0.15-0.232 0.404-0.753 0.486-0.999 0.092-0.275 0.117-0.712 0.071-1.251-0.141-1.648-0.17-2.605-0.206-6.688l-0.031-3.573 0.516-1.135c0.884-1.945 0.95-2.148 1.007-3.114 0.047-0.798-0.023-1.66-0.175-2.139-0.086-0.269-0.263-0.615-0.43-0.837-0.080-0.106-0.36-0.409-0.623-0.672-0.913-0.914-1.195-1.515-1.26-2.679-0.036-0.65-0.151-0.98-0.488-1.401-0.54-0.674-1.966-1.677-3-2.11-0.885-0.37-1.634-0.473-3.158-0.431-1.2 0.033-2.489 0.027-3.058-0.015-0.658-0.048-0.912-0.076-2.015-0.218-1.272-0.164-1.958-0.233-2.701-0.272-1.173-0.062-2.176 0.053-3.124 0.358-1.5 0.483-3.745 1.752-5.109 2.889-0.501 0.417-0.876 0.674-0.921 0.629-0.104-0.104 1.064-1.070 2.466-2.040 1.122-0.777 1.878-1.171 2.882-1.506 1.872-0.623 3.798-0.746 5.807-0.372 0.995 0.185 2.638 0.316 4.373 0.346 0.952 0.017 1.443-0.006 1.507-0.070 0.038-0.038-0.139-0.129-0.365-0.187-0.699-0.179-2.656-0.373-4.643-0.46-0.197-0.009-0.473-0.022-0.615-0.029-0.288-0.015-1.006-0.038-2.215-0.071-0.448-0.012-2.449-0.019-4.447-0.016l-3.632 0.006-0.498 0.337c-0.574 0.388-0.719 0.504-1.060 0.849-0.817 0.827-1.512 1.969-2.198 3.612-0.304 0.729-0.684 1.52-0.858 1.786-0.067 0.102-0.205 0.286-0.307 0.409s-0.181 0.227-0.175 0.232c0.012 0.010 1.472 0.044 1.923 0.045 0.156 0 0.276 0.008 0.266 0.018s-0.311 0.048-0.669 0.086c-1.034 0.109-1.73 0.246-2.066 0.404-0.576 0.272-1.904 2.148-2.116 2.989-0.234 0.929-0.059 2.127 0.471 3.216 0.43 0.883 0.954 1.448 1.636 1.763 0.259 0.12 0.58 0.343 0.58 0.404 0 0.055-0.125 0.044-0.406-0.034-0.106-0.029-0.201-0.045-0.211-0.034-0.025 0.025 0.074 0.173 0.346 0.521 0.361 0.461 0.818 1.296 1.141 2.081 0.6 1.458 1.931 3.121 3.37 4.21 1.030 0.779 3.054 2.033 3.85 2.385 0.534 0.236 2.078 1.057 3.487 1.854 0.714 0.404 1.916 1.012 2.43 1.229 0.266 0.113 0.463 0.173 0.772 0.235 0.913 0.185 1.791 0.418 4.4 1.166 1.593 0.457 1.685 0.479 2.131 0.516 0.44 0.037 2.273 0.010 2.802-0.041zM26.332 28.301c-2.217-0.033-3.803-0.109-4.759-0.227-2.82-0.348-6.267-1.256-8.646-2.277-0.878-0.377-2.488-1.247-3.816-2.062-0.838-0.515-1.486-0.966-1.486-1.035 0-0.116 0.615 0.199 1.929 0.99 1.458 0.877 1.856 1.103 2.643 1.497 1.659 0.831 3.179 1.338 5.946 1.987 2.697 0.632 3.703 0.761 6.903 0.884 0.613 0.024 1.256 0.049 1.429 0.057 0.476 0.021 1.477 0.057 1.558 0.056 0.044-0.001 0.319-0.17 0.715-0.44 1.763-1.202 1.835-1.278 1.927-2.018 0.022-0.182 0.047-0.337 0.054-0.345 0.024-0.024 0.055 0.838 0.034 0.965-0.027 0.163-0.137 0.365-0.267 0.491-0.133 0.128-0.593 0.457-1.457 1.042l-0.686 0.464-0.295-0.005c-0.162-0.003-0.939-0.014-1.725-0.026zM23.474 27.056c-0.854-0.013-2.695-0.1-3.859-0.182-1.536-0.108-2.192-0.267-3.802-0.921-1.26-0.512-2.956-1.336-4.633-2.25-0.699-0.381-1.487-0.856-1.623-0.979-0.116-0.104-0.116-0.106-0.043-0.107 0.134-0.002 0.937 0.391 2.126 1.041 1.138 0.622 2.512 1.301 3.618 1.79 0.148 0.065 0.79 0.334 1.427 0.598l1.158 0.479 0.343 0.019c0.189 0.010 0.568 0.031 0.843 0.047 1.038 0.058 3.125 0.17 3.744 0.201 0.354 0.018 1.106 0.033 1.672 0.033 1.131 0.001 1.625-0.036 2.147-0.162 0.754-0.183 1.16-0.425 1.869-1.117 0.406-0.396 0.604-0.556 0.688-0.556 0.043 0 0.047 0.013 0.026 0.088-0.111 0.387-0.974 1.14-1.758 1.534-0.422 0.212-0.888 0.323-1.639 0.391-0.464 0.042-1.515 0.067-2.305 0.055zM20.416 25.761l-0.2-0.016 0.215-0.022c0.277-0.028 2.988-0.029 3.295-0l0.235 0.022-0.186 0.018c-0.227 0.023-3.080 0.022-3.359-0.001zM20.544 24.799c-0.087-0.006-0.425-0.024-0.752-0.040-2.112-0.106-3.874-0.441-5.293-1.006-1.447-0.576-3.233-1.808-4.589-3.166-1.033-1.034-1.663-1.879-2.686-3.603-0.543-0.914-0.88-1.438-1.067-1.656-0.154-0.18-0.183-0.286-0.131-0.488 0.051-0.199 0-0.492-0.133-0.764-0.154-0.315-0.284-0.379-0.771-0.38-0.554-0.001-0.905-0.134-0.923-0.348-0.007-0.089 0.005-0.113 0.086-0.173 0.052-0.039 0.223-0.118 0.38-0.178 0.381-0.144 0.74-0.33 0.915-0.475 0.265-0.219 0.382-0.437 0.502-0.933 0.139-0.575 0.406-0.886 0.597-0.695 0.049 0.049 0.106 0.207 0.155 0.43 0.127 0.585 1.83 1.553 4.879 2.774 1.675 0.67 4.123 1.538 5.236 1.856 1.347 0.385 2.671 0.644 4.037 0.791 0.585 0.063 2.433 0.072 2.916 0.015 1.545-0.184 2.581-0.532 3.602-1.208 0.983-0.652 1.342-1.233 1.471-2.385 0.018-0.157 0.059-0.419 0.092-0.581 0.081-0.396 0.186-0.55 0.349-0.509 0.136 0.034 0.231 0.254 0.299 0.694 0.044 0.287 0.136 0.514 0.264 0.652 0.135 0.147 0.201 0.297 0.295 0.677 0.375 1.507 0.431 4.804 0.115 6.704-0.337 2.028-1.145 2.953-3.014 3.45-0.859 0.229-2.185 0.409-3.716 0.504-0.492 0.031-2.808 0.060-3.116 0.039zM21.856 23.866c0.016-0.083 0.042-0.227 0.057-0.322s0.073-0.439 0.129-0.765c0.142-0.828 0.135-1.031-0.044-1.123-0.093-0.048-0.344-0.087-0.826-0.128-0.493-0.042-1.050-0.131-1.367-0.219-0.231-0.064-0.272-0.068-0.308-0.033-0.070 0.070-0.121 0.413-0.157 1.039-0.047 0.84-0.004 1.496 0.105 1.577 0.095 0.071 0.697 0.113 1.689 0.12l0.691 0.004 0.030-0.15zM23.754 23.943c0.213-0.065 0.302-0.168 0.514-0.591 0.146-0.293 0.592-1.383 0.592-1.447 0-0.037-0.58-0.076-1.115-0.074-0.661 0.002-0.678 0.014-0.827 0.591-0.064 0.247-0.288 1.481-0.288 1.583 0 0.010 0.215 0.012 0.479 0.004 0.343-0.010 0.526-0.029 0.645-0.065zM25.592 23.714c0.143-0.036 0.34-0.075 0.437-0.086s0.185-0.034 0.196-0.052c0.011-0.018 0.021-0.135 0.023-0.261 0.004-0.327 0.065-0.5 0.562-1.61 0.030-0.068 0.051-0.134 0.047-0.146s-0.156 0.021-0.336 0.074c-0.18 0.053-0.411 0.111-0.513 0.129-0.218 0.038-0.253 0.070-0.388 0.353-0.094 0.199-0.502 1.508-0.502 1.613 0 0.1 0.030 0.099 0.475-0.014zM18.399 23.759c0.084-0.045 0.14-0.233 0.171-0.564 0.033-0.365 0.102-2.149 0.083-2.167-0.007-0.007-0.257-0.083-0.554-0.168-1.004-0.288-1.512-0.472-2.655-0.958-0.188-0.080-0.344-0.145-0.346-0.145s-0.012 0.21-0.022 0.466c-0.025 0.624-0.088 0.868-0.371 1.44-0.456 0.92-0.387 1.076 0.637 1.446 1.229 0.444 2.813 0.781 3.057 0.65zM27.37 23.318c0.097-0.038 0.269-0.084 0.382-0.101 0.124-0.019 0.271-0.067 0.371-0.12 0.167-0.089 0.511-0.377 0.511-0.428 0-0.017-0.075-0.020-0.2-0.008-0.16 0.016-0.214 0.010-0.27-0.027-0.146-0.096-0.147-0.334-0.002-0.906 0.109-0.43 0.092-0.57-0.059-0.472-0.2 0.131-0.543 0.72-0.807 1.388-0.311 0.785-0.306 0.823 0.074 0.674zM28.99 22.377c0.177-0.302 0.601-1.421 0.656-1.729 0.079-0.447-0.591 0.937-0.761 1.572-0.087 0.324-0.037 0.399 0.105 0.157zM13.777 21.802c0.506-1.186 0.637-1.82 0.446-2.162-0.096-0.172-0.17-0.216-0.586-0.355-0.54-0.18-1.025-0.402-2.101-0.964l-0.732-0.382-0.016 0.444c-0.021 0.602-0.091 0.86-0.339 1.253-0.16 0.254 0.009 0.432 1.505 1.579 0.377 0.289 0.873 0.671 1.1 0.848s0.428 0.322 0.444 0.322c0.016 0.001 0.141-0.262 0.279-0.583zM9.828 19.063c0.053-0.036 0.12-0.11 0.147-0.164 0.102-0.202 0.041-0.979-0.099-1.28-0.131-0.28-0.45-0.514-1.283-0.942-0.509-0.261-0.738-0.362-0.764-0.336-0.075 0.075 1.256 2.104 1.739 2.651 0.066 0.075 0.13 0.136 0.142 0.136s0.066-0.029 0.119-0.065zM19.359 18.835c-0.010-0.161-0.031-0.467-0.046-0.679s-0.029-0.453-0.032-0.535c-0.003-0.082-0.013-0.161-0.022-0.175s-0.081-0.040-0.159-0.057c-0.079-0.017-0.419-0.096-0.757-0.176-2.3-0.542-2.469-0.57-2.544-0.43-0.037 0.070-0.22 0.85-0.261 1.119-0.054 0.345 0.007 0.511 0.23 0.624 0.149 0.076 0.782 0.267 1.174 0.354 0.53 0.118 1.12 0.194 1.686 0.217 0.291 0.012 0.578 0.023 0.639 0.026l0.11 0.005-0.019-0.293zM22.601 19.078c-0-0.072-0.133-0.814-0.19-1.060-0.037-0.158-0.063-0.216-0.108-0.235-0.073-0.031-0.638-0.115-1.417-0.211-0.322-0.040-0.634-0.080-0.693-0.089l-0.107-0.017v1.663h1.258c1.179 0 1.258-0.003 1.258-0.050zM25.003 19.030c0.392-0.057 0.771-0.15 0.879-0.217 0.141-0.086 0.139-0.156-0.028-0.816-0.135-0.535-0.158-0.598-0.208-0.594-0.082 0.007-2.428 0.387-2.437 0.395-0.018 0.015 0.084 0.996 0.111 1.066 0.036 0.095 0.107 0.176 0.183 0.209 0.085 0.038 1.154 0.006 1.501-0.044zM27.189 18.756c0.047-0.013 0.153-0.033 0.236-0.043 0.165-0.021 0.222-0.075 0.304-0.287 0.189-0.488 0.226-1.178 0.089-1.634-0.079-0.261-0.162-0.26-0.658 0.013-0.596 0.328-0.633 0.394-0.519 0.928 0.041 0.193 0.088 0.484 0.104 0.646 0.039 0.401 0.091 0.484 0.269 0.429 0.048-0.015 0.127-0.038 0.174-0.052zM28.982 18.11c0.049-0.025 0.151-0.104 0.227-0.175 0.127-0.119 0.138-0.14 0.138-0.261-0-0.18-0.084-0.514-0.245-0.975-0.208-0.598-0.395-0.97-0.457-0.908-0.075 0.075-0.086 0.794-0.024 1.517 0.072 0.842 0.112 0.932 0.36 0.804zM14.68 17.969c0.032-0.040 0.072-0.146 0.090-0.236s0.082-0.394 0.141-0.677c0.127-0.602 0.123-0.634-0.103-0.779-0.143-0.092-0.548-0.261-0.926-0.387-0.722-0.241-1.644-0.561-2.201-0.763-0.71-0.258-0.969-0.312-1.023-0.21-0.053 0.098-0.060 0.323-0.017 0.491 0.084 0.322 0.419 0.854 0.787 1.248 0.268 0.287 0.404 0.378 0.644 0.429 0.363 0.077 0.646 0.188 1.524 0.594 0.855 0.396 0.975 0.428 1.082 0.292zM9.871 16.137c0.052-0.125 0.057-0.616 0.012-1.225-0.016-0.22-0.030-0.422-0.030-0.449-0-0.051-0.046-0.080-1.215-0.753-1.735-1-2.151-1.119-2.137-0.612 0.006 0.206 0.184 0.759 0.358 1.113 0.199 0.405 0.571 0.741 1.308 1.179 0.608 0.362 1.537 0.848 1.624 0.85 0.020 0 0.057-0.046 0.081-0.104zM29.667 15.391c-0.045-0.175-0.208-0.499-0.26-0.516-0.032-0.010-0.036 0.011-0.022 0.101 0.054 0.338 0.21 0.657 0.285 0.582 0.022-0.023 0.021-0.069-0.004-0.167zM3.913 16.212c-0.083-0.030-0.317-0.14-0.519-0.245-1.263-0.656-1.488-1.178-1.535-3.556-0.020-0.995 0.011-1.543 0.105-1.883 0.111-0.4 0.493-1.055 0.806-1.381 0.285-0.297 0.65-0.48 1.136-0.571 0.191-0.036 1.905-0.053 2.358-0.025l0.229 0.015-0.414 0.038c-0.228 0.021-0.466 0.043-0.529 0.050s-0.384 0.039-0.715 0.071c-1.522 0.148-1.692 0.228-2.2 1.028-0.255 0.401-0.431 0.766-0.506 1.043-0.054 0.204-0.063 0.326-0.074 1.119-0.024 1.654 0.097 2.457 0.451 2.994 0.204 0.309 0.379 0.458 0.913 0.775 0.587 0.348 0.772 0.486 0.772 0.574 0 0.027-0.138 0.004-0.28-0.046zM21.725 16.238c-0.228-0.038-0.454-0.134-0.551-0.233-0.103-0.105-0.202-0.351-0.202-0.5 0-0.057 0.026-0.158 0.058-0.223 0.102-0.211 0.287-0.242 0.504-0.084 0.302 0.219 0.447 0.231 0.763 0.064 0.34-0.179 0.854-0.779 1.137-1.327 0.137-0.265 0.149-0.464 0.042-0.706-0.122-0.277-0.286-0.418-0.532-0.46-0.331-0.057-0.711-0.625-0.843-1.262-0.026-0.124-0.057-0.46-0.070-0.746-0.033-0.734-0.049-0.762-0.62-1.102-0.311-0.185-0.509-0.365-0.541-0.492-0.031-0.124 0.009-0.211 0.124-0.269 0.132-0.067 0.214-0.083 0.521-0.104 0.456-0.031 0.737-0.153 1.125-0.49 0.696-0.605 1.188-0.838 2.047-0.972 0.479-0.074 1.665-0.074 1.982-0 0.392 0.092 0.6 0.208 0.933 0.522 0.231 0.218 0.348 0.396 0.352 0.535 0.012 0.42-0.544 0.624-2.195 0.804-1.838 0.201-2.833 0.529-2.955 0.973-0.039 0.141-0.040 0.401-0.002 0.757 0.065 0.62 0.155 0.767 0.719 1.173 0.662 0.476 1.116 0.866 1.607 1.38 0.511 0.535 0.706 0.685 0.954 0.735 0.235 0.048 0.491 0.177 0.731 0.371 0.183 0.147 0.362 0.35 0.362 0.409 0 0.063-0.192 0.001-0.43-0.139-0.355-0.209-1.025-0.536-1.249-0.611-0.313-0.104-0.393-0.079-0.567 0.185-0.134 0.202-0.206 0.222-0.355 0.102-0.175-0.14-0.246-0.122-0.525 0.134-0.159 0.146-0.385 0.389-0.631 0.678-0.258 0.303-0.651 0.683-0.791 0.766-0.246 0.144-0.555 0.189-0.902 0.131zM26.213 8.219c0.12-0.010 0.219-0.028 0.219-0.040 0-0.035-0.222-0.063-0.5-0.063-0.298 0-0.557 0.031-0.557 0.066 0 0.041 0.519 0.065 0.839 0.037zM16.494 15.342c-0.164-0.094-0.372-0.255-0.44-0.341-0.108-0.137-0.225-0.434-0.266-0.675-0.074-0.429-0.007-0.999 0.154-1.314 0.189-0.371 0.554-0.564 1.121-0.593 0.734-0.038 1.116 0.203 0.886 0.558-0.063 0.098-0.216 0.162-0.52 0.219-0.748 0.14-0.915 0.257-0.915 0.64 0 0.24 0.087 0.455 0.259 0.644 0.165 0.181 0.227 0.312 0.226 0.481-0.001 0.131-0.074 0.322-0.154 0.402-0.069 0.069-0.21 0.061-0.351-0.020zM3.691 15.13c-0.097-0.060-0.254-0.244-0.347-0.408-0.211-0.369-0.379-1.249-0.379-1.977 0-0.908 0.237-1.681 0.706-2.306 0.159-0.212 0.496-0.541 0.702-0.687 0.618-0.437 1.96-0.587 2.877-0.323 0.155 0.045 0.411 0.161 0.715 0.324 0.832 0.448 1.629 0.773 2.239 0.914 0.523 0.121 0.979 0.052 1.613-0.244 0.419-0.196 0.719-0.409 1.058-0.751 0.343-0.347 0.44-0.401 0.63-0.35 0.169 0.045 0.221 0.12 0.219 0.312-0.006 0.503-0.831 1.333-1.652 1.662-0.886 0.355-1.899 0.331-3.072-0.071-0.658-0.226-1.635-0.688-1.847-0.875-0.127-0.112-0.244-0.157-0.511-0.197-0.383-0.058-0.984 0.008-1.42 0.157-0.383 0.13-0.573 0.272-0.835 0.625-0.219 0.295-0.374 0.562-0.483 0.836-0.268 0.669-0.289 0.94-0.124 1.626 0.207 0.863 0.248 1.084 0.252 1.348 0.004 0.225-0.004 0.273-0.056 0.343-0.074 0.1-0.169 0.113-0.286 0.042zM30.977 15.059c0-0.089 0.318-0.311 0.972-0.676 0.84-0.47 0.909-0.561 1.102-1.458 0.129-0.6 0.168-0.969 0.146-1.386-0.047-0.879-0.276-1.362-0.824-1.733-0.172-0.116-0.397-0.313-0.637-0.556-0.364-0.369-0.499-0.468-0.7-0.514-0.055-0.013-0.621-0.024-1.258-0.025-1.098-0.002-1.163-0.005-1.272-0.059-0.327-0.163 0.011-0.37 0.429-0.261 0.263 0.068 0.741 0.104 1.388 0.104 0.938 0 1.050 0.038 1.593 0.543 0.376 0.349 0.684 0.607 0.84 0.7 0.197 0.119 0.615 1.092 0.682 1.591 0.061 0.453-0.13 1.701-0.377 2.453-0.073 0.222-0.111 0.292-0.207 0.386-0.274 0.265-1.396 0.846-1.77 0.916-0.084 0.016-0.105 0.011-0.105-0.024zM17.7 15.020c-0.174-0.042-0.277-0.264-0.274-0.592 0.002-0.273 0.013-0.316 0.112-0.422 0.134-0.145 0.304-0.18 0.877-0.178 0.586 0.002 0.899 0.056 1.249 0.217 0.395 0.182 0.488 0.452 0.198 0.575-0.042 0.018-0.386 0.040-0.803 0.052-0.431 0.012-0.775 0.034-0.842 0.055-0.063 0.019-0.158 0.083-0.214 0.143-0.088 0.094-0.207 0.179-0.235 0.168-0.005-0.002-0.035-0.010-0.066-0.017zM31.336 13.786c-0.034-0.055 0.092-0.249 0.346-0.53 0.441-0.489 0.481-0.572 0.476-0.973-0.004-0.299-0.074-0.878-0.155-1.282-0.097-0.484-0.214-0.641-0.667-0.893-0.305-0.17-0.549-0.38-0.522-0.449 0.010-0.027 0.043-0.048 0.072-0.048 0.085 0 0.371 0.106 0.622 0.23 0.398 0.197 0.563 0.41 0.669 0.864 0.128 0.547 0.215 1.787 0.146 2.094-0.042 0.189-0.2 0.438-0.421 0.663-0.25 0.255-0.515 0.408-0.566 0.327zM12.716 13.411c-0.154-0.033-0.175-0.051-0.109-0.099 0.088-0.064 0.466-0.104 1.235-0.129 1.001-0.033 1.357-0.109 1.511-0.321 0.055-0.076 0.055-0.081 0.004-0.232-0.062-0.184-0.046-0.248 0.063-0.247 0.095 0.001 0.132 0.022 0.175 0.105 0.086 0.164-0.015 0.514-0.195 0.677-0.13 0.117-0.213 0.143-0.658 0.204-0.387 0.053-1.836 0.083-2.026 0.043zM26.875 12.296c-0.42-0.077-0.581-0.141-0.774-0.307-0.206-0.178-0.335-0.508-0.272-0.698 0.1-0.303 0.289-0.301 0.897 0.008 0.438 0.222 0.522 0.208 1.007-0.174 0.86-0.678 1.027-0.755 1.706-0.791 0.773-0.040 1.527 0.169 1.869 0.52 0.23 0.236 0.271 0.542 0.097 0.729-0.145 0.156-0.403 0.112-0.732-0.125-0.546-0.392-1.306-0.429-1.801-0.088-0.182 0.125-0.313 0.3-0.422 0.563-0.098 0.236-0.198 0.348-0.346 0.389-0.179 0.050-0.899 0.035-1.227-0.026zM16.899 10.257c-0.376-0.218-1.12-0.631-1.315-0.729-1.232-0.619-2.599-0.76-4.089-0.421-0.782 0.178-1.293 0.159-1.579-0.059-0.272-0.208-0.226-0.657 0.121-1.179 0.595-0.895 1.846-1.444 3.589-1.577 1.185-0.090 2.164 0.117 3.054 0.646 0.555 0.33 1.352 1 1.557 1.308 0.208 0.313 0.238 0.647 0.087 0.959-0.129 0.266-0.784 0.875-1.128 1.049-0.168 0.085-0.157 0.085-0.298 0.003zM17.364 9.029c0.071-0.071 0.102-0.128 0.102-0.187 0-0.168-0.383-0.585-0.789-0.857-0.665-0.447-1.776-0.948-1.878-0.847-0.034 0.034-0.201 0.802-0.201 0.924 0 0.141 0.078 0.204 0.286 0.232 0.309 0.041 0.575 0.145 1.346 0.527 0.581 0.288 0.706 0.333 0.893 0.32 0.114-0.008 0.157-0.028 0.241-0.112zM11.181 8.292c0.304-0.095 0.496-0.259 0.416-0.355-0.047-0.057-0.293-0.056-0.461 0.001-0.218 0.074-0.465 0.327-0.409 0.417 0.023 0.038 0.216 0.011 0.453-0.063zM8.844 9.39c-0.011-0.010-0.019-0.056-0.019-0.1 0-0.123 0.142-0.203 0.327-0.183 0.078 0.008 0.159 0.033 0.181 0.055 0.034 0.034 0.027 0.050-0.056 0.113-0.152 0.116-0.374 0.175-0.434 0.115zM8.198 8.821c-0.174-0.047-0.3-0.117-0.399-0.222-0.134-0.143-0.024-0.228 0.41-0.315 0.316-0.063 1.163-0.194 1.176-0.181 0.006 0.006-0.198 0.103-0.454 0.217-0.457 0.203-0.624 0.297-0.589 0.332 0.010 0.010 0.16 0.053 0.334 0.096s0.325 0.087 0.337 0.098c0.039 0.039-0.657 0.018-0.815-0.025zM22.424 7.334c-0.027-1.247 0.114-1.917 0.44-2.086 0.092-0.047 0.166-0.026 0.166 0.048 0 0.029-0.058 0.166-0.13 0.304-0.169 0.327-0.273 0.745-0.37 1.494-0.042 0.322-0.081 0.591-0.087 0.597s-0.015-0.154-0.020-0.357zM9.54 6.469c0-0.181 0.574-0.828 1.266-1.429 0.606-0.525 1.027-0.764 1.801-1.020 0.64-0.211 1.194-0.315 1.977-0.37 0.126-0.009 0.322-0.023 0.436-0.032 0.362-0.028 1.839-0.017 2.142 0.016 0.462 0.051 0.678 0.138 0.476 0.192-0.104 0.028-0.714 0.029-1.524 0.003-1.166-0.037-2.229 0.084-3.201 0.363-0.968 0.279-1.556 0.661-2.601 1.693-0.4 0.395-0.685 0.637-0.748 0.637-0.013 0-0.024-0.024-0.024-0.053zM17.79 6.125c-0.036-0.62-0.171-0.994-0.574-1.599-0.215-0.322-0.267-0.432-0.231-0.489 0.033-0.053 0.226 0.071 0.392 0.25 0.19 0.205 0.365 0.552 0.449 0.89 0.069 0.275 0.075 0.592 0.021 1.045l-0.034 0.286-0.022-0.383zM27.949 6.372c-0.031-0.067-0.094-0.251-0.142-0.408-0.146-0.489-0.365-0.751-0.955-1.146-0.412-0.276-0.769-0.453-1.035-0.512-0.185-0.041-0.301-0.047-0.641-0.032-0.804 0.035-1.963 0.185-2.568 0.333-0.391 0.095-0.497 0.105-0.545 0.047-0.136-0.164 0.427-0.335 1.555-0.473 1.359-0.166 1.99-0.195 2.33-0.108 0.227 0.058 0.752 0.319 1.095 0.545 0.475 0.313 0.833 0.717 0.97 1.097 0.092 0.256 0.107 0.779 0.021 0.779-0.016 0-0.053-0.055-0.084-0.122zM8.552 6.16c0.043-0.173 0.66-0.92 1.052-1.272 1.154-1.039 2.689-1.861 4.071-2.179 0.846-0.195 1.603-0.276 2.682-0.289 1.148-0.013 1.653 0.032 2.615 0.234 1.066 0.223 1.728 0.281 3.201 0.281 1.246-0 1.624-0.022 2.901-0.163 1.328-0.147 2.082-0.124 2.429 0.071 0.143 0.081 0.244 0.228 0.244 0.357 0 0.097-0.002 0.099-0.093 0.081-0.051-0.010-0.179-0.076-0.284-0.146s-0.272-0.155-0.372-0.188c-0.166-0.057-0.219-0.060-0.68-0.045-0.275 0.009-0.655 0.036-0.843 0.060-0.698 0.089-1.653 0.16-2.499 0.186-0.478 0.015-0.878 0.021-0.889 0.015s-0.236-0.014-0.502-0.017c-0.904-0.009-1.878-0.113-2.813-0.301-1.502-0.302-2.929-0.314-4.345-0.037-2 0.39-3.672 1.255-4.87 2.518-0.376 0.396-0.82 0.807-0.944 0.872l-0.082 0.043 0.020-0.081z"></path>
</symbol>
<symbol id="icon-edit-icon" viewBox="0 0 25 32">
<path d="M23.094 0.965c-0.626-0.423-1.241-0.713-1.858-0.962l-0.662 0.911 3.763 2.735 0.662-0.911c-0.646-0.794-1.279-1.349-1.905-1.773zM20.149 1.5l-0.662 0.911 3.763 2.735 0.662-0.911zM19.005 3.075l-8.932 12.292 2.046 0.665 8.623-11.698zM21.109 4.627l-8.576 11.674 1.161 1.823 9.074-12.315zM9.843 15.893l-0.97 4.909 4.289-2.366-1.218-1.816z"></path>
<path d="M3.75 1.568c-2.075 0-3.752 1.677-3.752 3.752v22.946c0 2.075 1.677 3.736 3.752 3.736h15.33c2.075 0 3.752-1.661 3.752-3.736v-17.955l-2.287 3.092v13.993c0 1.279-1.024 2.319-2.303 2.319h-13.655c-1.279 0-2.303-1.040-2.303-2.319v-21.224c0-1.279 1.024-2.303 2.303-2.303h10.887l1.464-2.303z"></path>
</symbol>
</defs>
</svg>
